<svg xmlns="http://www.w3.org/2000/svg" width="40" height="40" viewBox="0 0 40 40" fill="none"><circle opacity="0.3" cx="20" cy="20" r="19" fill="white" fill-opacity="0.7" stroke="#DEDEDE" stroke-width="2"></circle><path d="M11.219 12.281C11.1493 12.2112 11.094 12.1285 11.0562 12.0373C11.0185 11.9462 10.9991 11.8486 10.9991 11.75C10.9991 11.6514 11.0185 11.5537 11.0562 11.4626C11.094 11.3715 11.1493 11.2887 11.219 11.219C11.2887 11.1492 11.3715 11.0939 11.4626 11.0562C11.5537 11.0184 11.6514 10.999 11.75 10.999C11.8486 10.999 11.9463 11.0184 12.0374 11.0562C12.1285 11.0939 12.2113 11.1492 12.281 11.219L20 18.9395L27.719 11.219C27.7887 11.1492 27.8715 11.0939 27.9626 11.0562C28.0537 11.0184 28.1514 10.999 28.25 10.999C28.3486 10.999 28.4463 11.0184 28.5374 11.0562C28.6285 11.0939 28.7113 11.1492 28.781 11.219C28.8507 11.2887 28.906 11.3715 28.9438 11.4626C28.9815 11.5537 29.0009 11.6514 29.0009 11.75C29.0009 11.8486 28.9815 11.9462 28.9438 12.0373C28.906 12.1285 28.8507 12.2112 28.781 12.281L21.0605 20L28.781 27.719C28.8507 27.7887 28.906 27.8715 28.9438 27.9626C28.9815 28.0537 29.0009 28.1514 29.0009 28.25C29.0009 28.3486 28.9815 28.4462 28.9438 28.5373C28.906 28.6285 28.8507 28.7112 28.781 28.781C28.7113 28.8507 28.6285 28.906 28.5374 28.9438C28.4463 28.9815 28.3486 29.0009 28.25 29.0009C28.1514 29.0009 28.0537 28.9815 27.9626 28.9438C27.8715 28.906 27.7887 28.8507 27.719 28.781L20 21.0605L12.281 28.781C12.2113 28.8507 12.1285 28.906 12.0374 28.9438C11.9463 28.9815 11.8486 29.0009 11.75 29.0009C11.6514 29.0009 11.5537 28.9815 11.4626 28.9438C11.3715 28.906 11.2887 28.8507 11.219 28.781C11.1493 28.7112 11.094 28.6285 11.0562 28.5373C11.0185 28.4462 10.9991 28.3486 10.9991 28.25C10.9991 28.1514 11.0185 28.0537 11.0562 27.9626C11.094 27.8715 11.1493 27.7887 11.219 27.719L18.9395 20L11.219 12.281Z" fill="#9F9F9F"></path></svg>