<svg xmlns="http://www.w3.org/2000/svg" width="40" height="40" viewBox="0 0 40 40" fill="none"><circle opacity="0.3" cx="20" cy="20" r="19" stroke="#9F9F9F" stroke-width="2"></circle><path d="M13.3334 18.3333V25H26.6667V18.3333L20 20.8333L13.3334 18.3333ZM13.3334 15V16.6666L20 19.1666L26.6667 16.6666V15H13.3334ZM13.3334 13.3333H26.6667C27.1087 13.3333 27.5326 13.5089 27.8452 13.8215C28.1578 14.134 28.3334 14.558 28.3334 15V25C28.3334 25.442 28.1578 25.8659 27.8452 26.1785C27.5326 26.4911 27.1087 26.6666 26.6667 26.6666H13.3334C12.8913 26.6666 12.4674 26.4911 12.1548 26.1785C11.8423 25.8659 11.6667 25.442 11.6667 25V15C11.6667 14.558 11.8423 14.134 12.1548 13.8215C12.4674 13.5089 12.8913 13.3333 13.3334 13.3333Z" fill="#474343"></path></svg>