<svg xmlns="http://www.w3.org/2000/svg" width="18" height="10" viewBox="0 0 18 10" fill="none"><path d="M8.16675 2.34599H4.83342C4.17037 2.34599 3.53449 2.60938 3.06565 3.07822C2.59681 3.54706 2.33341 4.18295 2.33341 4.84599C2.33341 5.50903 2.59681 6.14491 3.06565 6.61376C3.53449 7.0826 4.17037 7.34599 4.83342 7.34599H8.16675V9.01266H4.83342C3.72835 9.01266 2.66854 8.57367 1.88714 7.79227C1.10573 7.01086 0.666748 5.95106 0.666748 4.84599C0.666748 3.74092 1.10573 2.68111 1.88714 1.89971C2.66854 1.11831 3.72835 0.679321 4.83342 0.679321H8.16675V2.34599ZM9.83342 7.34599H13.1667C13.8298 7.34599 14.4657 7.0826 14.9345 6.61376C15.4034 6.14491 15.6667 5.50903 15.6667 4.84599C15.6667 4.18295 15.4034 3.54706 14.9345 3.07822C14.4657 2.60938 13.8298 2.34599 13.1667 2.34599H9.83342V0.679321H13.1667C14.2718 0.679321 15.3316 1.11831 16.113 1.89971C16.8944 2.68111 17.3334 3.74092 17.3334 4.84599C17.3334 5.95106 16.8944 7.01086 16.113 7.79227C15.3316 8.57367 14.2718 9.01266 13.1667 9.01266H9.83342V7.34599ZM6.50008 4.01265H11.5001C11.7211 4.01265 11.9331 4.10045 12.0893 4.25673C12.2456 4.41301 12.3334 4.62497 12.3334 4.84599C12.3334 5.067 12.2456 5.27896 12.0893 5.43524C11.9331 5.59152 11.7211 5.67932 11.5001 5.67932H6.50008C6.27907 5.67932 6.06711 5.59152 5.91083 5.43524C5.75455 5.27896 5.66675 5.067 5.66675 4.84599C5.66675 4.62497 5.75455 4.41301 5.91083 4.25673C6.06711 4.10045 6.27907 4.01265 6.50008 4.01265Z" fill="#C50000"></path></svg>